<?xml version="1.0" standalone="no"?>
<!DOCTYPE svg PUBLIC "-//W3C//DTD SVG 20010904//EN"
 "http://www.w3.org/TR/2001/REC-SVG-20010904/DTD/svg10.dtd">
<svg version="1.0" xmlns="http://www.w3.org/2000/svg"
 width="343.000000pt" height="343.000000pt" viewBox="0 0 343.000000 343.000000"
 preserveAspectRatio="xMidYMid meet">
<metadata>
Created by potrace 1.14, written by Peter Selinger 2001-2017
</metadata>
<g transform="translate(0.000000,343.000000) scale(0.100000,-0.100000)"
fill="#000000" stroke="none">
<path d="M963 3394 c-38 -38 -40 -44 -12 -37 17 5 19 2 14 -20 -11 -41 2 -67
33 -66 15 1 64 -2 109 -6 57 -6 96 -4 128 5 86 24 51 33 -106 27 -161 -6 -182
2 -58 22 119 19 149 29 149 51 0 25 -31 26 -66 4 -21 -14 -24 -14 -18 -1 4 11
-1 15 -20 13 -14 0 -26 -4 -26 -8 0 -3 -9 -4 -19 -1 -10 3 -29 -1 -41 -7 -18
-9 -21 -9 -18 0 2 7 23 20 47 30 33 13 40 18 27 23 -41 16 -91 5 -123 -29z"/>
<path d="M2143 3408 c13 -21 21 -23 93 -20 86 4 115 7 186 18 92 13 35 24
-129 24 l-165 0 15 -22z"/>
<path d="M2698 3413 c7 -3 16 -2 19 1 4 3 -2 6 -13 5 -11 0 -14 -3 -6 -6z"/>
<path d="M3250 3396 c0 -2 7 -7 16 -10 8 -3 12 -2 9 4 -6 10 -25 14 -25 6z"/>
<path d="M1230 3380 c0 -6 10 -10 23 -10 12 -1 45 -3 73 -5 62 -5 94 10 38 18
-61 9 -134 7 -134 -3z"/>
<path d="M2680 3350 c0 -11 2 -20 4 -20 2 0 6 9 9 20 3 11 1 20 -4 20 -5 0 -9
-9 -9 -20z"/>
<path d="M655 3350 c-4 -6 6 -10 22 -10 22 0 25 2 13 10 -19 12 -27 12 -35 0z"/>
<path d="M575 3340 c3 -5 13 -10 21 -10 8 0 12 5 9 10 -3 6 -13 10 -21 10 -8
0 -12 -4 -9 -10z"/>
<path d="M471 3336 c11 -9 100 -15 94 -6 -3 6 -27 10 -52 10 -26 0 -44 -2 -42
-4z"/>
<path d="M231 3320 c-19 -4 -78 -11 -132 -15 l-99 -7 0 -45 c0 -42 2 -45 23
-39 95 24 130 27 155 17 16 -7 55 -9 96 -6 71 6 94 13 95 30 1 6 15 15 32 20
l31 11 -23 11 -24 12 28 0 c16 1 26 5 22 11 -7 12 -154 12 -204 0z"/>
<path d="M468 3313 c7 -3 16 -2 19 1 4 3 -2 6 -13 5 -11 0 -14 -3 -6 -6z"/>
<path d="M1784 3298 c-32 -17 -36 -17 -24 -3 15 18 22 18 -94 0 -54 -9 -105
-35 -112 -59 -7 -20 -7 -20 -15 2 -7 20 -14 22 -46 18 -72 -9 -218 -70 -208
-86 3 -6 12 -10 18 -10 7 0 6 4 -3 10 -13 9 -13 10 0 11 41 5 57 4 74 -4 13
-6 16 -6 12 2 -4 6 -4 11 1 12 49 3 103 3 103 -2 0 -3 16 -5 35 -6 25 -1 35 3
35 14 0 9 6 12 18 9 25 -8 56 27 49 54 -5 20 7 28 18 10 8 -13 -12 -51 -39
-72 l-21 -18 28 0 c20 0 27 -5 27 -20 0 -11 4 -20 8 -20 5 0 17 9 27 20 21 24
47 27 39 5 -7 -18 -4 -18 30 -5 32 12 33 4 4 -20 -13 -10 -20 -21 -16 -25 4
-4 19 2 34 14 28 22 54 28 54 12 0 -5 -4 -11 -10 -13 -6 -2 -6 -9 0 -18 8 -12
13 -11 33 8 24 23 43 30 32 12 -3 -5 -2 -10 4 -10 5 0 13 5 16 10 5 8 11 7 21
-1 11 -9 16 -6 23 14 5 14 16 28 23 31 7 3 3 4 -9 2 -13 -2 -23 0 -23 4 0 5
-9 12 -21 15 -12 4 -18 12 -15 21 3 9 -1 14 -13 14 -26 0 -33 11 -18 28 10 13
8 14 -15 9 -28 -7 -58 0 -58 14 0 5 15 12 32 17 24 6 28 10 16 14 -9 4 -33 -3
-54 -14z m-169 -48 c3 -5 1 -10 -4 -10 -6 0 -11 5 -11 10 0 6 2 10 4 10 3 0 8
-4 11 -10z"/>
<path d="M917 3304 c-8 -8 25 -44 35 -38 4 3 8 9 8 14 0 12 -35 31 -43 24z"/>
<path d="M888 3250 c-4 -29 12 -57 25 -43 4 3 7 -5 7 -18 0 -19 2 -21 10 -9 8
13 10 13 10 -2 0 -9 5 -20 11 -24 8 -4 9 0 4 15 -12 39 9 26 75 -46 11 -13 32
-23 48 -23 18 0 23 -3 14 -8 -9 -6 -10 -16 -3 -34 5 -14 7 -28 4 -31 -3 -3 10
-19 27 -34 l32 -29 -39 0 c-28 1 -39 5 -36 14 6 15 16 12 -97 23 -52 4 -114
11 -137 15 -24 3 -43 2 -43 -2 0 -5 17 -10 37 -12 21 -1 42 -7 47 -12 6 -6 26
-10 45 -10 36 0 34 -14 -4 -23 -13 -3 -7 -5 15 -7 19 -1 44 -5 54 -9 17 -7 18
-8 3 -14 -9 -3 -19 -1 -23 4 -6 11 -40 8 -78 -7 -13 -5 -17 -4 -13 3 5 8 -3 8
-25 0 -45 -16 -46 -17 -24 -33 23 -17 11 -18 -31 -3 -25 8 -37 6 -69 -11 -22
-12 -44 -27 -49 -33 -6 -7 -15 -13 -20 -14 -6 -1 -18 -5 -28 -8 -13 -5 -16 -3
-11 8 5 14 -16 17 -70 8 -13 -2 2 -14 20 -17 9 -1 30 -10 49 -18 18 -9 49 -17
68 -18 52 -4 27 -22 -27 -20 -25 1 -55 6 -68 11 -13 4 -33 7 -46 6 -16 -1 -19
2 -12 9 18 18 11 28 -17 22 -16 -3 -22 -3 -15 0 18 8 15 37 -4 30 -8 -3 -13
-2 -10 3 7 11 -46 19 -71 10 -14 -5 -23 0 -34 20 l-16 27 89 -1 c48 -1 93 2
100 6 12 8 -52 29 -87 28 -27 -1 -53 6 -62 15 -4 4 9 5 30 1 42 -8 107 1 107
15 0 6 -9 10 -20 10 -11 0 -20 -4 -20 -10 0 -5 -10 -9 -22 -9 -17 1 -19 2 -5
6 26 7 20 27 -13 41 -32 15 -50 9 -50 -14 0 -8 -5 -12 -10 -9 -6 3 -13 -2 -17
-12 -9 -25 -25 -34 -39 -22 -15 12 -54 -26 -54 -53 0 -10 -5 -18 -11 -18 -5 0
-8 -4 -5 -8 3 -5 -3 -18 -13 -28 -10 -11 -17 -32 -17 -46 1 -15 -2 -25 -5 -22
-8 4 -16 -27 -24 -89 -3 -21 -12 -51 -20 -67 -8 -16 -17 -47 -19 -70 -2 -23
-7 -44 -10 -47 -3 -3 -2 -11 3 -17 4 -6 10 -20 13 -32 5 -18 1 -20 -33 -18
-32 2 -39 -1 -39 -16 0 -32 -11 -50 -31 -50 -11 0 -19 7 -19 16 0 21 -44 14
-48 -8 -3 -14 31 -30 73 -32 6 -1 11 -4 13 -8 5 -18 1 -27 -18 -33 -30 -10
-24 -23 12 -27 25 -2 33 -9 39 -31 l8 -28 -44 7 c-42 6 -44 5 -43 -17 1 -13 6
-30 12 -38 8 -10 8 -15 -1 -18 -7 -3 -13 -12 -13 -20 0 -10 6 -13 15 -9 9 3
18 -1 21 -9 8 -19 31 -19 66 -1 26 14 28 13 34 -8 3 -13 3 -38 0 -56 l-5 -32
27 25 c36 34 74 43 96 22 17 -17 23 -50 7 -41 -5 3 -11 -1 -15 -9 -3 -9 -19
-15 -38 -15 -60 -1 -69 -17 -74 -125 -6 -124 5 -148 38 -80 26 57 37 68 55 54
21 -18 19 -53 -4 -79 -30 -32 -29 -51 3 -106 36 -62 57 -71 94 -42 16 13 29
31 29 40 1 32 20 68 33 62 7 -2 26 -34 42 -69 24 -55 63 -99 88 -100 3 0 10
-3 14 -7 4 -5 11 -8 16 -8 16 0 36 64 31 98 -4 22 0 39 11 51 11 12 15 27 11
43 -4 14 0 41 9 62 8 20 18 55 21 79 4 23 15 57 26 75 10 18 19 39 19 47 0 28
42 94 75 119 18 14 42 40 54 58 28 46 85 88 121 91 16 1 32 8 35 15 2 6 10 12
18 12 7 0 31 18 54 41 32 31 42 50 48 87 8 64 15 83 25 77 11 -7 21 21 14 40
-4 8 -1 15 5 15 6 0 11 -6 11 -12 1 -16 39 33 40 50 0 6 4 12 8 12 9 0 62 76
62 88 0 4 9 13 20 20 18 11 24 9 54 -20 18 -18 36 -41 39 -50 4 -10 11 -18 17
-18 12 0 13 -35 1 -58 -14 -28 -21 -82 -11 -82 6 0 10 7 10 15 0 27 20 15 21
-12 l1 -28 7 25 c6 19 9 9 16 -45 8 -66 9 -68 17 -35 4 19 7 53 6 75 -2 49 11
115 23 115 5 0 9 -6 9 -13 0 -18 36 -50 48 -43 5 3 14 0 20 -7 11 -13 12 -17
12 -42 0 -30 19 -14 26 22 6 31 8 34 15 18 4 -11 8 -29 8 -40 1 -17 -1 -17 -9
-5 -7 11 -10 12 -10 2 0 -13 23 -42 34 -42 3 0 6 9 6 20 0 12 7 20 17 20 13 0
14 -3 5 -12 -18 -18 -14 -38 8 -38 11 0 20 -5 20 -11 0 -5 14 -15 30 -20 17
-6 30 -15 30 -20 0 -5 11 -15 25 -21 15 -7 25 -20 25 -32 0 -18 2 -19 11 -6 9
12 11 13 16 1 10 -24 43 -52 55 -45 8 5 9 2 5 -9 -3 -10 -2 -18 3 -18 6 -1 13
-2 18 -3 4 -1 23 -6 42 -10 19 -5 37 -12 40 -15 3 -4 23 -15 46 -23 32 -13 49
-14 85 -6 73 17 109 36 103 53 -4 9 0 15 9 15 8 0 17 5 19 11 5 16 88 15 98 0
4 -7 8 -60 9 -119 1 -65 9 -135 20 -177 10 -40 15 -79 11 -90 -4 -11 -6 -32
-3 -46 3 -15 0 -30 -6 -33 -6 -4 -11 -13 -11 -20 0 -19 59 -7 93 18 24 18 28
26 23 54 -4 25 -1 34 12 38 9 3 25 10 34 15 11 5 19 5 23 -1 10 -16 45 -12 45
5 0 8 -9 20 -20 27 -23 15 -26 28 -6 28 8 0 22 9 30 21 8 12 29 25 48 29 30 7
31 9 11 15 -13 4 -20 11 -18 16 3 4 -5 17 -17 29 -17 15 -23 33 -24 66 -1 25
-4 47 -7 50 -9 10 -88 -7 -82 -17 4 -5 -8 -6 -25 -3 -17 4 -30 3 -29 -2 3 -18
-1 -34 -10 -34 -5 0 -4 17 1 40 6 22 14 38 17 35 4 -2 15 5 24 15 11 13 12 20
4 24 -7 2 -3 8 10 11 22 7 75 77 80 105 1 8 7 16 13 18 16 6 -8 32 -29 32 -14
1 -14 2 2 14 16 13 16 14 -5 28 -39 25 -102 37 -129 23 -18 -9 -39 -9 -89 1
l-65 12 60 0 c33 0 68 1 78 1 28 1 9 21 -19 21 -23 0 -24 1 -10 16 9 8 24 15
33 14 10 -1 39 -2 65 -3 25 -1 44 -5 42 -9 -3 -5 0 -8 5 -8 6 0 11 5 11 10 0
14 -37 53 -53 56 -6 2 -22 6 -34 10 -16 4 -28 -1 -45 -19 -25 -27 -44 -34
-103 -41 -36 -4 -38 -3 -21 9 10 8 24 17 30 20 8 3 7 7 -1 11 -7 3 -13 10 -13
15 0 6 4 8 9 5 16 -10 41 5 41 24 0 10 -7 21 -16 24 -23 9 -34 7 -34 -4 0 -5
7 -7 15 -4 24 10 17 -14 -7 -27 -13 -7 -25 -15 -28 -19 -3 -4 -23 1 -45 11
-27 12 -33 19 -20 19 11 0 31 7 44 14 21 11 17 12 -33 8 -39 -3 -56 -1 -56 7
0 7 -11 -1 -25 -16 -18 -21 -24 -24 -25 -11 0 11 -6 15 -22 11 -21 -4 -21 -3
-6 9 15 13 15 15 0 25 -14 9 -12 11 14 8 21 -3 34 2 42 15 14 23 5 30 -46 32
-29 1 -39 5 -35 15 3 7 0 13 -6 13 -6 0 -11 -5 -11 -10 0 -17 -67 -1 -135 31
-75 35 -68 36 27 4 83 -28 92 -30 82 -14 -5 9 4 10 31 5 24 -5 35 -4 31 3 -4
6 9 13 29 17 62 11 46 19 -33 16 -59 -2 -93 3 -144 20 -39 13 -64 26 -60 33 3
5 -2 4 -11 -4 -11 -9 -17 -10 -17 -2 0 6 -9 11 -20 11 -21 0 -28 20 -7 21 6 0
4 4 -7 8 -10 4 -45 4 -78 0 -32 -4 -71 -3 -86 1 -23 7 -19 9 23 10 l50 2 -35
16 c-19 8 -39 15 -44 13 -5 -1 -21 2 -35 8 -14 5 -68 15 -118 22 l-93 13 37
17 38 17 -30 7 c-17 3 -38 10 -47 16 -10 5 -36 9 -58 9 -23 0 -39 4 -36 9 3 5
15 7 26 4 11 -3 20 -1 20 5 0 5 -9 12 -19 15 -14 3 -18 11 -14 26 8 29 -5 26
-17 -4 -6 -15 -17 -25 -29 -25 -11 0 -28 -3 -38 -6 -16 -5 -16 -4 1 10 11 9
14 16 7 16 -7 0 -9 4 -6 10 8 12 -40 24 -57 14 -23 -15 -40 -13 -34 2 3 8 -1
17 -9 21 -13 5 -13 7 2 19 16 11 13 12 -20 4 -21 -4 -43 -13 -50 -18 -16 -13
-84 20 -130 64 -39 37 -61 46 -75 32 -8 -8 -9 -5 -5 11 3 11 1 21 -5 21 -5 0
-12 -14 -14 -30z m270 -157 c16 -16 16 -16 -1 -10 -10 4 -25 7 -33 7 -8 0 -14
5 -14 10 0 16 30 12 48 -7z m-688 -100 c-1 -19 -19 -35 -30 -28 -10 6 -9 11 5
22 22 15 25 16 25 6z m480 -113 c20 -5 27 -9 15 -10 -11 -1 -28 -3 -37 -5 -10
-2 -20 1 -24 6 -3 5 -14 9 -25 9 -10 0 -19 5 -19 11 0 7 10 9 28 4 15 -4 43
-11 62 -15z m-582 -7 c-10 -2 -28 -2 -40 0 -13 2 -5 4 17 4 22 1 32 -1 23 -4z
m772 -13 c0 -15 -93 -80 -115 -80 -15 0 -10 6 18 22 20 12 37 29 37 37 0 8 3
11 6 8 4 -3 16 0 28 8 24 18 26 18 26 5z m-255 -10 c3 -5 -1 -10 -9 -10 -8 0
-18 5 -21 10 -3 6 1 10 9 10 8 0 18 -4 21 -10z m935 -15 c17 -9 30 -22 30 -29
0 -7 14 -19 30 -26 17 -7 30 -16 30 -21 0 -5 24 -20 53 -34 28 -13 48 -24 43
-25 -5 0 -3 -7 4 -15 21 -25 -5 -18 -53 15 -25 17 -50 30 -56 30 -6 0 -36 24
-66 54 -69 68 -73 81 -15 51z m-630 -65 c0 -5 -10 -16 -22 -24 -32 -19 -78
-29 -78 -16 0 6 13 13 30 16 16 4 35 13 41 20 13 16 29 18 29 4z m299 -32 c0
-18 -3 -27 -6 -20 -2 6 -9 10 -14 6 -5 -3 -9 2 -9 11 0 9 5 13 10 10 6 -3 10
1 10 9 0 9 2 16 5 16 3 0 5 -15 4 -32z m631 -117 c0 -5 10 -7 22 -3 14 3 19 1
14 -6 -6 -11 -116 -15 -116 -5 0 6 43 22 63 22 9 1 17 -3 17 -8z m-122 -7 c12
-4 22 -10 22 -15 0 -15 -37 -10 -50 6 -13 16 -8 18 28 9z m502 -44 c0 -5 -4
-10 -10 -10 -5 0 -10 5 -10 10 0 6 5 10 10 10 6 0 10 -4 10 -10z m-2275 -60
c-3 -5 -12 -10 -18 -10 -7 0 -6 4 3 10 19 12 23 12 15 0z m2173 3 c-10 -2 -26
-2 -35 0 -10 3 -2 5 17 5 19 0 27 -2 18 -5z m-2221 -133 c-6 -22 -15 -40 -19
-40 -11 0 -10 5 6 45 20 47 26 44 13 -5z m-16 -73 c-1 -4 -3 -7 -6 -7 -40 0
-40 0 -25 10 16 10 32 9 31 -3z m26 -136 c0 -11 -5 -17 -9 -15 -11 7 -10 34 1
34 6 0 9 -9 8 -19z m2305 -73 c-8 -8 -9 -4 -5 13 4 13 8 18 11 10 2 -7 -1 -18
-6 -23z"/>
<path d="M1326 3263 c-3 -4 -6 -13 -6 -22 0 -10 3 -12 8 -5 4 6 14 13 21 16
13 4 12 5 -1 10 -9 4 -19 4 -22 1z"/>
<path d="M990 3242 c0 -4 9 -16 21 -26 18 -15 25 -16 51 -5 21 8 26 14 16 19
-20 11 -88 20 -88 12z"/>
<path d="M1205 3243 c-41 -3 -55 -7 -45 -13 10 -6 3 -8 -20 -4 -27 4 -40 1
-56 -15 -12 -11 -25 -17 -30 -13 -4 4 -4 1 1 -7 6 -10 24 -12 75 -8 66 6 164
43 154 59 -3 4 -8 7 -12 6 -4 -1 -34 -3 -67 -5z"/>
<path d="M458 3233 c7 -3 16 -2 19 1 4 3 -2 6 -13 5 -11 0 -14 -3 -6 -6z"/>
<path d="M1230 3170 c20 -13 33 -13 25 0 -3 6 -14 10 -23 10 -15 0 -15 -2 -2
-10z"/>
<path d="M1551 3161 c-17 -11 -4 -18 33 -17 17 1 32 8 34 16 5 13 3 13 -11 1
-11 -9 -17 -10 -17 -2 0 13 -19 14 -39 2z"/>
<path d="M2405 3140 c-11 -5 -37 -9 -57 -9 -21 -1 -38 -5 -38 -11 0 -20 121
-2 135 20 7 12 -13 12 -40 0z"/>
<path d="M3275 3140 c-60 -4 -118 -8 -128 -9 -15 -1 -17 -11 -13 -100 3 -55
10 -110 16 -122 17 -32 44 -609 28 -609 -4 0 -8 -7 -8 -15 0 -12 15 -15 78
-15 42 0 101 3 130 6 l52 7 0 433 0 434 -22 -2 c-13 -1 -72 -5 -133 -8z m143
-74 c0 -55 -13 -63 -114 -71 l-91 -6 -6 28 c-4 20 1 34 15 50 23 24 34 27 130
31 l66 3 0 -35z m-108 -247 c0 -13 -40 -31 -56 -25 -27 10 1 44 31 39 14 -3
25 -9 25 -14z m0 -60 c73 40 90 19 90 -115 l0 -104 -52 2 c-29 0 -63 7 -75 15
-21 12 -23 21 -23 112 0 54 3 101 7 104 3 4 13 1 22 -7 10 -9 22 -11 31 -7z
m98 -272 c4 -20 -25 -34 -40 -19 -15 15 -1 44 19 40 10 -2 19 -11 21 -21z
m-48 -39 c0 -4 -9 -8 -20 -8 -11 0 -20 4 -20 9 0 6 9 9 20 8 11 -1 20 -5 20
-9z"/>
<path d="M186 3102 c-3 -6 -1 -14 5 -17 15 -10 25 3 12 16 -7 7 -13 7 -17 1z"/>
<path d="M240 3099 c0 -6 -10 -20 -22 -30 -11 -11 -16 -19 -10 -19 19 0 72 35
69 45 -5 15 -37 19 -37 4z"/>
<path d="M1875 3101 c-3 -5 -1 -12 4 -15 13 -8 42 4 35 15 -7 12 -31 12 -39 0z"/>
<path d="M1940 3082 c0 -11 41 -34 48 -27 4 4 -2 13 -12 21 -22 15 -36 18 -36
6z"/>
<path d="M846 3071 c-3 -5 5 -11 19 -13 28 -6 34 6 9 16 -20 8 -22 8 -28 -3z"/>
<path d="M60 3040 c0 -5 5 -10 10 -10 6 0 10 5 10 10 0 6 -4 10 -10 10 -5 0
-10 -4 -10 -10z"/>
<path d="M150 3031 c0 -6 4 -13 10 -16 6 -3 7 1 4 9 -7 18 -14 21 -14 7z"/>
<path d="M2429 3035 c-3 -2 -21 -5 -42 -7 -36 -2 -47 -11 -28 -22 5 -4 12 0
15 6 5 10 7 10 12 1 4 -9 11 -10 24 -3 14 7 19 5 23 -10 7 -25 22 -25 47 0 11
11 20 16 20 11 0 -5 -14 -21 -31 -35 l-31 -26 29 0 c22 0 25 -2 13 -10 -11 -7
-7 -10 17 -10 17 0 35 -5 39 -11 5 -8 -6 -9 -35 -4 -33 5 -41 4 -41 -9 0 -9
13 -19 33 -24 28 -7 32 -13 35 -46 l3 -37 19 24 c15 18 18 37 16 89 -2 36 -6
70 -9 75 -3 5 -2 15 4 23 5 8 9 18 9 23 0 7 -133 10 -141 2z"/>
<path d="M2092 2978 c-15 -15 -15 -28 -1 -28 5 0 7 5 4 10 -4 6 6 10 22 10 22
0 25 2 13 10 -19 13 -24 12 -38 -2z"/>
<path d="M2060 2880 c0 -4 7 -11 16 -14 19 -7 59 -8 52 -1 -10 11 -68 23 -68
15z"/>
<path d="M200 2844 c0 -8 5 -12 10 -9 6 4 8 11 5 16 -9 14 -15 11 -15 -7z"/>
<path d="M2320 2844 c0 -8 5 -12 10 -9 6 3 10 10 10 16 0 5 -4 9 -10 9 -5 0
-10 -7 -10 -16z"/>
<path d="M2138 2833 c6 -2 18 -2 25 0 6 3 1 5 -13 5 -14 0 -19 -2 -12 -5z"/>
<path d="M2375 2830 c3 -6 1 -10 -4 -10 -6 0 -9 -10 -7 -22 2 -17 10 -23 27
-23 13 1 28 -5 32 -12 5 -8 12 -11 17 -8 5 3 7 -4 5 -16 -3 -15 0 -19 10 -15
9 3 12 0 8 -10 -3 -7 0 -14 6 -14 6 0 11 7 11 15 0 9 6 12 15 9 50 -20 -41 80
-94 102 -18 7 -29 9 -26 4z"/>
<path d="M0 2743 c0 -12 8 -23 20 -26 26 -7 26 5 0 28 -19 18 -20 17 -20 -2z"/>
<path d="M2396 2743 c-6 -14 -5 -15 5 -6 7 7 10 15 7 18 -3 3 -9 -2 -12 -12z"/>
<path d="M100 2730 c0 -5 5 -10 10 -10 6 0 10 5 10 10 0 6 -4 10 -10 10 -5 0
-10 -4 -10 -10z"/>
<path d="M185 2661 c-6 -5 -19 -11 -30 -14 -16 -4 -14 -5 6 -6 16 -1 29 5 33
14 6 17 4 19 -9 6z"/>
<path d="M2780 2430 c0 -5 -9 -19 -21 -31 -19 -19 -19 -22 -5 -38 9 -10 16
-22 16 -28 0 -6 8 -9 18 -6 10 2 24 -2 31 -10 6 -9 21 -13 32 -10 19 5 19 7
-10 33 -16 16 -36 30 -43 33 -10 4 -10 7 1 15 8 6 11 18 6 31 -6 21 -25 29
-25 11z"/>
<path d="M2700 2390 c-8 -15 -17 -19 -35 -14 -19 5 -25 2 -25 -10 0 -14 6 -16
35 -10 31 5 35 4 41 -20 7 -28 34 -36 34 -11 0 8 -6 15 -14 15 -14 0 -26 21
-26 46 0 9 5 12 12 8 7 -4 8 -3 4 4 -10 16 -14 15 -26 -8z"/>
<path d="M3040 2368 c0 -26 -4 -58 -9 -72 -8 -19 -6 -28 6 -38 14 -11 15 -9
11 20 -2 17 -1 32 4 32 11 0 10 72 -2 90 -7 11 -10 2 -10 -32z"/>
<path d="M2851 2378 c12 -23 42 -24 37 -1 -2 9 -13 17 -25 18 -18 1 -20 -1
-12 -17z"/>
<path d="M0 2340 c0 -5 5 -10 10 -10 6 0 10 5 10 10 0 6 -4 10 -10 10 -5 0
-10 -4 -10 -10z"/>
<path d="M8 2288 c9 -9 15 -9 24 0 9 9 7 12 -12 12 -19 0 -21 -3 -12 -12z"/>
<path d="M2770 2280 c0 -5 5 -10 10 -10 6 0 10 5 10 10 0 6 -4 10 -10 10 -5 0
-10 -4 -10 -10z"/>
<path d="M2602 2254 c-14 -16 -5 -18 17 -5 7 5 9 11 5 14 -5 3 -15 -1 -22 -9z"/>
<path d="M2680 2203 c0 -10 -3 -28 -6 -40 -4 -16 -2 -23 7 -23 9 0 14 12 15
31 1 17 7 35 15 40 10 6 8 9 -8 9 -15 0 -23 -6 -23 -17z"/>
<path d="M2826 2212 c-2 -4 7 -12 20 -19 13 -6 26 -8 29 -4 2 5 -7 13 -20 19
-13 6 -26 8 -29 4z"/>
<path d="M0 2200 c0 -5 7 -10 16 -10 8 0 12 5 9 10 -3 6 -10 10 -16 10 -5 0
-9 -4 -9 -10z"/>
<path d="M3319 2186 c-2 -3 -68 -6 -147 -7 -83 -2 -142 -7 -142 -12 0 -7 53
-8 143 -4 78 4 168 7 200 7 31 0 57 4 57 10 0 9 -102 15 -111 6z"/>
<path d="M2756 2158 c-12 -16 -14 -36 -9 -82 7 -79 15 -88 53 -69 36 17 36 22
9 57 -24 31 -18 45 19 45 15 -1 50 3 77 9 l50 10 -45 2 c-25 2 -57 2 -73 1
-21 -2 -29 3 -37 23 -12 32 -24 33 -44 4z"/>
<path d="M3055 2120 c-56 -10 177 -10 290 0 78 6 67 7 -80 7 -93 0 -188 -4
-210 -7z"/>
<path d="M3213 2083 c-152 -3 -203 -6 -203 -16 0 -9 42 -11 187 -6 246 9 233
8 233 19 0 6 -3 9 -7 8 -5 -2 -99 -4 -210 -5z"/>
<path d="M1320 2058 c-35 -5 -69 -13 -76 -19 -7 -5 -35 -7 -63 -5 -29 3 -51 1
-51 -4 0 -6 11 -10 24 -10 14 0 28 -4 31 -10 4 -6 -13 -10 -43 -10 -41 0 -51
-3 -55 -20 -3 -11 -12 -20 -21 -20 -9 0 -16 -4 -16 -10 0 -15 63 -12 86 4 16
12 23 12 38 1 17 -13 15 -15 -16 -31 -39 -20 -86 -66 -81 -80 2 -6 -6 -19 -17
-29 -34 -31 -26 -52 23 -60 23 -4 45 -13 50 -19 4 -7 9 -3 13 12 8 27 11 27
52 2 25 -15 32 -17 32 -5 0 7 4 17 10 20 6 3 7 -1 4 -9 -3 -9 -1 -16 5 -16 6
0 11 7 11 15 0 8 6 12 14 9 18 -7 85 39 108 74 10 15 18 36 18 47 0 13 3 16 8
8 4 -6 19 -14 34 -18 24 -6 27 -11 24 -39 -7 -51 -17 -67 -47 -73 -34 -6 -39
-20 -7 -19 26 1 62 -53 41 -61 -23 -8 -13 -23 12 -19 14 3 25 0 25 -5 0 -5 6
-9 14 -9 8 0 16 -6 19 -14 3 -7 18 -17 33 -20 22 -6 32 -3 45 13 10 12 23 19
31 16 8 -3 32 10 55 30 23 19 45 35 50 35 16 0 31 45 26 73 -3 15 -9 25 -13
22 -10 -6 -22 24 -14 36 3 5 1 9 -4 9 -5 0 -12 -13 -15 -30 -7 -34 -19 -38
-45 -12 -10 10 -24 16 -32 14 -8 -3 -10 0 -5 8 6 10 1 12 -18 8 -15 -3 -24 -2
-21 3 2 4 -4 16 -14 26 -11 10 -25 28 -31 41 -12 23 -12 23 26 16 21 -4 54
-14 73 -22 19 -9 38 -15 43 -14 4 1 7 -5 7 -13 0 -29 45 -7 51 26 4 18 -10 59
-20 59 -4 0 -17 9 -28 20 -12 10 -50 28 -85 39 -53 16 -95 25 -218 45 -8 1
-44 -2 -80 -6z m-89 -85 c11 -15 11 -16 -1 -6 -10 9 -17 10 -27 2 -13 -12 -19
2 -6 14 10 11 20 8 34 -10z"/>
<path d="M160 2049 c0 -5 5 -7 10 -4 6 3 10 8 10 11 0 2 -4 4 -10 4 -5 0 -10
-5 -10 -11z"/>
<path d="M4 2008 c4 -24 9 -65 12 -93 8 -74 12 -84 29 -61 8 11 12 29 9 41 -3
13 1 27 11 35 15 12 19 12 30 -4 11 -15 16 -15 33 -5 24 15 66 86 55 92 -5 2
-35 5 -68 6 -40 2 -63 7 -68 17 -4 8 -17 14 -29 14 -18 0 -19 -4 -14 -42z
m151 -28 c3 -5 1 -10 -4 -10 -6 0 -11 5 -11 10 0 6 2 10 4 10 3 0 8 -4 11 -10z"/>
<path d="M125 2040 c3 -5 10 -10 16 -10 5 0 9 5 9 10 0 6 -7 10 -16 10 -8 0
-12 -4 -9 -10z"/>
<path d="M3095 2023 c-44 -2 -75 -7 -68 -11 17 -11 403 -3 403 8 0 10 -150 11
-335 3z"/>
<path d="M3158 1973 c-82 -2 -148 -7 -148 -11 0 -4 60 -7 133 -6 230 1 287 4
287 14 0 6 -26 9 -62 8 -35 -1 -129 -4 -210 -5z"/>
<path d="M2770 1956 c0 -9 5 -16 10 -16 6 0 10 4 10 9 0 6 -4 13 -10 16 -5 3
-10 -1 -10 -9z"/>
<path d="M2103 1938 c-13 -6 -23 -15 -23 -20 0 -4 -6 -8 -14 -8 -15 0 -33 -18
-92 -90 -32 -39 -36 -49 -31 -87 3 -31 12 -49 30 -63 18 -14 24 -27 20 -42 -4
-20 -3 -21 7 -5 6 9 18 17 25 17 8 0 15 5 15 10 0 6 9 10 21 10 15 0 19 5 15
15 -4 11 2 15 22 15 44 1 92 52 92 98 0 21 3 23 28 17 15 -3 37 -20 50 -36 23
-29 55 -38 67 -19 3 6 2 10 -4 10 -5 0 -8 11 -5 25 2 14 0 25 -6 25 -5 0 -10
8 -10 19 0 21 35 32 67 20 17 -6 20 -3 18 19 -1 15 -3 30 -3 33 -1 4 -22 16
-47 28 -35 17 -63 21 -132 20 -49 0 -98 -5 -110 -11z"/>
<path d="M1048 1923 c7 -3 16 -2 19 1 4 3 -2 6 -13 5 -11 0 -14 -3 -6 -6z"/>
<path d="M2705 1920 c3 -5 8 -10 11 -10 2 0 4 5 4 10 0 6 -5 10 -11 10 -5 0
-7 -4 -4 -10z"/>
<path d="M3145 1910 c-25 -11 157 -11 235 0 43 6 25 7 -80 8 -74 0 -144 -3
-155 -8z"/>
<path d="M3028 1903 c6 -2 18 -2 25 0 6 3 1 5 -13 5 -14 0 -19 -2 -12 -5z"/>
<path d="M1578 1893 c7 -3 16 -2 19 1 4 3 -2 6 -13 5 -11 0 -14 -3 -6 -6z"/>
<path d="M3260 1860 c-74 -3 -121 -7 -105 -10 47 -8 275 1 275 11 0 5 -8 8
-17 7 -10 -1 -79 -5 -153 -8z"/>
<path d="M3170 1800 c-10 -7 28 -10 123 -8 75 1 137 5 137 10 0 12 -242 10
-260 -2z"/>
<path d="M2632 1781 c2 -7 7 -12 11 -12 12 1 9 15 -3 20 -7 2 -11 -2 -8 -8z"/>
<path d="M672 1755 c0 -16 2 -22 5 -12 2 9 2 23 0 30 -3 6 -5 -1 -5 -18z"/>
<path d="M140 1745 c0 -8 -5 -15 -11 -15 -5 0 -7 -4 -4 -10 12 -20 35 -10 35
15 0 14 -4 25 -10 25 -5 0 -10 -7 -10 -15z"/>
<path d="M2257 1729 c-8 -28 -3 -34 11 -16 6 7 7 19 3 26 -6 9 -10 6 -14 -10z"/>
<path d="M3135 1740 c7 -11 165 -11 210 0 19 5 -15 8 -93 9 -80 1 -121 -3
-117 -9z"/>
<path d="M3408 1743 c7 -3 16 -2 19 1 4 3 -2 6 -13 5 -11 0 -14 -3 -6 -6z"/>
<path d="M1405 1720 c4 -6 11 -8 16 -5 14 9 11 15 -7 15 -8 0 -12 -5 -9 -10z"/>
<path d="M2611 1711 c-8 -5 -19 -7 -26 -5 -6 3 -18 -2 -25 -11 -9 -11 -16 -12
-26 -4 -9 8 -16 5 -24 -12 -10 -17 -9 -23 1 -30 20 -12 26 -11 33 6 4 10 20
15 53 15 61 0 82 12 64 34 -15 18 -29 20 -50 7z"/>
<path d="M3185 1691 c-55 -3 -95 -9 -90 -12 9 -6 177 -5 235 0 l25 3 -25 8
c-14 4 -29 8 -35 7 -5 0 -55 -3 -110 -6z"/>
<path d="M3408 1683 c7 -3 16 -2 19 1 4 3 -2 6 -13 5 -11 0 -14 -3 -6 -6z"/>
<path d="M2690 1669 c0 -5 11 -9 25 -9 14 0 25 2 25 4 0 2 -11 6 -25 8 -14 3
-25 1 -25 -3z"/>
<path d="M2994 1631 c-2 -2 -4 -8 -4 -13 0 -11 413 -9 431 3 8 5 10 9 4 10
-26 4 -427 3 -431 0z"/>
<path d="M410 1603 c0 -12 -4 -25 -10 -28 -19 -12 -10 -22 15 -17 29 5 29 8
10 42 -14 24 -14 24 -15 3z"/>
<path d="M2715 1580 c3 -5 13 -10 21 -10 8 0 14 5 14 10 0 6 -9 10 -21 10 -11
0 -17 -4 -14 -10z"/>
<path d="M2813 1565 c-8 -22 2 -28 32 -21 22 6 25 9 15 21 -16 19 -39 19 -47
0z"/>
<path d="M3190 1570 c-106 -3 -161 -8 -140 -12 43 -8 343 -10 364 -2 24 9 8
24 -22 22 -15 -1 -106 -5 -202 -8z"/>
<path d="M2560 1540 c0 -5 5 -10 11 -10 5 0 7 5 4 10 -3 6 -8 10 -11 10 -2 0
-4 -4 -4 -10z"/>
<path d="M3055 1500 c76 -12 375 -12 375 0 0 6 -77 10 -212 9 -143 -1 -196 -4
-163 -9z"/>
<path d="M196 1366 c-38 -34 -33 -46 19 -44 24 0 42 5 39 10 -3 4 0 8 5 8 13
0 11 -50 -2 -67 -9 -13 -8 -14 15 -17 21 -2 22 -36 1 -37 -10 0 -13 -3 -5 -6
15 -6 16 -53 0 -53 -6 0 -3 -6 7 -14 11 -8 23 -12 26 -10 4 2 10 -4 13 -13 4
-10 -2 -26 -16 -42 -13 -14 -16 -20 -7 -13 14 10 18 10 23 -3 3 -10 11 -13 18
-9 9 5 9 3 -1 -9 -17 -22 -3 -22 21 0 17 15 18 14 19 -23 1 -54 7 -85 22 -103
8 -10 8 -12 1 -8 -7 4 -14 0 -18 -8 -3 -8 -1 -15 5 -15 6 0 7 -4 4 -10 -3 -5
-2 -10 3 -10 14 0 20 43 33 240 9 137 15 180 26 180 7 0 13 -5 13 -12 0 -6 3
-8 7 -4 4 4 13 -10 20 -31 l13 -38 -5 59 c-2 32 -6 60 -9 63 -2 2 -15 -3 -28
-11 -22 -14 -30 -15 -73 -2 -26 8 -65 29 -86 45 -46 37 -70 39 -103 7z"/>
<path d="M1687 1143 c-16 -3 -34 -16 -44 -31 -9 -15 -18 -29 -20 -31 -1 -2 -9
2 -18 9 -28 23 -17 -24 15 -65 17 -21 30 -43 30 -49 -1 -18 -24 -43 -37 -39
-21 7 -24 -16 -3 -29 11 -7 20 -18 20 -25 0 -8 14 -13 35 -13 19 0 35 4 35 8
0 4 14 16 30 25 17 10 30 15 30 10 0 -4 7 3 16 15 9 13 14 26 11 29 -3 3 -1
17 4 31 7 18 6 27 -2 33 -7 4 1 10 19 14 18 3 36 4 41 1 14 -9 24 12 17 39
-10 39 -112 78 -179 68z"/>
<path d="M2792 981 c109 -54 194 -102 190 -106 -4 -5 -2 -5 5 -1 6 3 41 -13
77 -36 76 -50 190 -116 262 -152 27 -14 58 -34 69 -46 25 -27 35 -25 35 8 0
26 -13 35 -192 129 -261 137 -609 303 -636 303 -4 0 82 -44 190 -99z"/>
<path d="M1910 962 c0 -10 6 -19 14 -19 8 0 11 8 8 19 -2 10 -8 18 -13 18 -5
0 -9 -8 -9 -18z"/>
<path d="M1820 961 c0 -22 -2 -26 -16 -34 -18 -10 -48 -67 -35 -67 5 0 16 7
25 15 8 8 22 15 31 15 13 0 16 6 12 26 -4 21 -1 25 14 21 12 -3 19 0 19 9 0 8
-4 14 -9 14 -5 0 -16 3 -25 6 -9 3 -16 1 -16 -5z"/>
<path d="M0 897 l0 -45 158 -7 c86 -3 172 -7 191 -8 22 -1 36 3 39 12 3 8 0
11 -7 7 -6 -4 -11 -1 -11 7 0 17 -30 27 -85 27 -56 0 -115 11 -115 21 0 4 17
10 38 12 25 2 18 4 -24 5 -34 1 -89 5 -123 8 l-61 7 0 -46z"/>
<path d="M1260 890 c-14 -4 -21 -8 -16 -9 5 -1 3 -7 -3 -15 -6 -7 -13 -36 -15
-64 l-4 -50 29 8 c22 7 29 5 29 -5 0 -13 55 -13 115 0 12 2 32 -2 47 -9 35
-19 131 -51 142 -48 14 4 47 -9 42 -17 -7 -11 32 -41 54 -41 30 0 24 17 -11
29 -20 7 -29 16 -27 26 2 13 20 17 78 20 108 6 260 29 268 41 4 6 16 14 27 19
17 7 18 9 3 12 -9 2 -33 -3 -53 -11 -44 -19 -91 -21 -101 -5 -4 7 -9 7 -13 2
-3 -6 -19 -13 -35 -17 -22 -5 -27 -4 -23 6 2 8 -2 23 -10 33 -12 18 -28 20
-156 22 -143 3 -212 15 -221 39 -3 8 0 11 9 7 14 -5 33 22 23 32 -7 8 -68 -25
-68 -36 0 -6 -4 -8 -9 -5 -5 4 -12 0 -15 -6 -4 -7 -5 -4 -3 7 3 14 -4 25 -19
32 -19 9 -24 8 -24 -3 0 -8 -4 -14 -10 -14 -5 0 -7 7 -4 15 4 8 5 15 3 14 -2
-1 -15 -5 -29 -9z"/>
<path d="M1530 890 c0 -5 5 -10 10 -10 6 0 10 5 10 10 0 6 -4 10 -10 10 -5 0
-10 -4 -10 -10z"/>
<path d="M1582 889 c2 -6 8 -10 13 -10 5 0 11 4 13 10 2 6 -4 11 -13 11 -9 0
-15 -5 -13 -11z"/>
<path d="M1460 879 c0 -5 5 -7 10 -4 6 3 10 8 10 11 0 2 -4 4 -10 4 -5 0 -10
-5 -10 -11z"/>
<path d="M77 800 c-38 -5 -71 -10 -73 -13 -2 -2 -3 -150 -2 -328 l3 -324 74
75 c40 41 93 102 117 135 73 103 144 278 144 355 0 15 3 30 7 34 4 4 8 21 9
37 2 29 1 29 -55 29 -31 0 -78 2 -106 4 -27 3 -81 1 -118 -4z m190 -66 c-3 -3
-12 -4 -19 -1 -8 3 -5 6 6 6 11 1 17 -2 13 -5z"/>
<path d="M850 732 c0 -12 19 -26 26 -19 2 2 -2 10 -11 17 -9 8 -15 8 -15 2z"/>
<path d="M1180 710 c0 -5 5 -10 10 -10 6 0 10 5 10 10 0 6 -4 10 -10 10 -5 0
-10 -4 -10 -10z"/>
<path d="M704 654 c3 -8 6 -18 6 -20 0 -3 5 -2 10 1 15 9 12 22 -6 29 -12 5
-15 2 -10 -10z"/>
<path d="M860 660 c0 -5 5 -10 11 -10 5 0 7 5 4 10 -3 6 -8 10 -11 10 -2 0 -4
-4 -4 -10z"/>
<path d="M781 641 c-8 -14 -7 -20 4 -25 8 -3 15 -2 16 2 0 4 2 15 4 25 4 23
-12 22 -24 -2z"/>
<path d="M1060 634 c0 -8 5 -12 10 -9 6 4 8 11 5 16 -9 14 -15 11 -15 -7z"/>
<path d="M671 633 c-1 -6 -4 -20 -7 -30 -5 -17 -5 -17 6 0 6 10 9 23 6 30 -3
9 -5 9 -5 0z"/>
<path d="M730 619 c0 -22 -30 -34 -30 -13 0 8 -5 12 -10 9 -16 -10 8 -83 38
-113 6 -7 12 -18 12 -23 0 -16 4 -23 33 -52 15 -15 27 -32 27 -37 0 -12 32
-45 51 -53 9 -4 7 -6 -6 -7 -19 -1 -19 -2 2 -10 16 -6 20 -14 16 -30 -4 -16 3
-30 26 -51 18 -16 36 -29 42 -29 5 0 9 -7 9 -15 0 -8 5 -15 10 -15 6 0 10 -7
10 -15 0 -8 3 -15 8 -15 4 0 7 -11 7 -25 0 -19 -5 -25 -22 -25 -13 0 -23 5
-23 10 0 6 -4 10 -10 10 -24 0 -7 -28 21 -34 17 -3 28 -10 24 -16 -7 -11 42
-33 56 -24 5 3 9 0 9 -5 0 -6 -5 -11 -11 -11 -9 0 -9 -4 0 -13 7 -9 37 -15 83
-16 69 -1 71 -1 46 13 -15 8 -41 17 -59 21 -31 7 -32 8 -14 21 15 11 15 14 4
14 -9 0 -16 7 -16 15 0 12 7 14 31 9 17 -3 38 -12 46 -19 8 -7 36 -16 63 -20
47 -7 47 -7 53 24 4 17 12 31 18 31 6 0 5 4 -3 9 -11 7 -9 13 8 30 22 22 47
19 67 -7 6 -8 15 -12 21 -9 6 4 21 -5 34 -19 19 -21 72 -54 86 -54 2 0 1 6 -3
12 -6 10 -5 10 8 1 8 -7 18 -10 22 -6 4 4 4 -1 0 -11 -6 -15 -4 -17 6 -11 7 4
29 9 48 11 18 2 41 9 50 16 13 11 14 11 8 0 -7 -11 -2 -11 20 1 16 8 51 15 77
16 42 1 59 -5 121 -44 l73 -45 422 2 421 3 -82 49 c-46 27 -151 93 -233 146
-122 79 -251 154 -309 179 -5 2 6 -10 25 -28 l34 -31 -88 40 c-103 46 -117 48
-117 18 0 -41 -3 -57 -11 -52 -4 2 -13 -4 -18 -15 -12 -22 9 -37 28 -18 13 13
15 -1 5 -27 -5 -13 -9 -14 -20 -5 -8 6 -21 9 -29 5 -8 -3 -15 0 -16 7 0 7 -5
0 -11 -16 -5 -15 -14 -25 -19 -21 -5 3 -9 -3 -9 -12 0 -17 -1 -17 -13 0 -12
16 -14 16 -33 -2 -18 -17 -23 -18 -39 -6 -15 11 -21 11 -34 1 -12 -9 -13 -9
-7 0 4 7 2 13 -3 13 -6 0 -11 -5 -11 -11 0 -8 -4 -8 -12 -2 -25 20 -58 22 -68
5 -9 -16 -9 -16 -10 0 0 13 -8 16 -37 14 -21 -2 -44 2 -51 7 -7 5 -15 7 -18 4
-4 -3 -24 3 -46 14 -22 11 -49 18 -59 16 -11 -3 -19 -1 -19 4 0 6 -6 9 -12 8
-7 -1 -26 4 -43 11 -16 7 -38 12 -48 12 -11 -1 -29 11 -42 26 -18 21 -25 24
-37 14 -15 -12 -28 -7 -28 10 0 5 5 6 12 2 7 -4 8 -3 4 4 -4 6 -13 9 -21 5
-10 -3 -15 1 -15 12 0 14 -4 13 -20 -6 -11 -13 -20 -19 -19 -14 3 22 -2 32
-16 32 -8 0 -15 -5 -15 -11 0 -6 -5 -3 -11 7 -5 9 -21 17 -35 17 -21 0 -24 3
-19 23 5 17 4 19 -4 7 -6 -8 -11 -11 -11 -6 0 5 -9 -2 -21 -15 l-21 -24 7 30
c4 17 3 25 -2 19 -4 -6 -15 -13 -24 -16 -13 -5 -16 -2 -12 13 3 11 0 19 -7 19
-10 0 -10 3 0 15 16 19 31 2 23 -24 -4 -14 -3 -14 6 -1 18 25 13 74 -9 87 -16
11 -18 10 -14 -2 4 -8 3 -23 0 -32 -5 -13 -9 -14 -19 -4 -9 9 -9 14 3 21 12 8
11 10 -6 10 -11 0 -29 -9 -39 -20 -17 -18 -19 -19 -30 -3 -11 14 -10 20 4 30
10 8 12 12 4 13 -7 0 -13 7 -13 15 0 8 -9 15 -20 15 -11 0 -20 5 -20 10 0 6 7
10 15 10 9 0 12 6 8 16 -5 15 -7 15 -15 0 -7 -13 -13 -14 -22 -6 -10 8 -12 5
-8 -15 3 -16 0 -25 -8 -25 -7 0 -10 7 -6 18 5 14 4 14 -9 -2 -13 -17 -15 -18
-15 -3 0 9 -4 17 -10 17 -5 0 -10 -4 -10 -10 0 -5 -5 -10 -11 -10 -5 0 -7 4
-4 10 3 5 1 18 -4 27 -9 16 -10 16 -11 2z m120 -95 c0 -8 -4 -12 -10 -9 -5 3
-10 13 -10 21 0 8 5 12 10 9 6 -3 10 -13 10 -21z m95 -43 c-9 -16 -25 -3 -18
15 4 10 9 12 15 6 6 -6 7 -15 3 -21z m-55 -222 c0 -6 -4 -7 -10 -4 -5 3 -10
11 -10 16 0 6 5 7 10 4 6 -3 10 -11 10 -16z m1096 -46 c-10 -10 -19 5 -10 18
6 11 8 11 12 0 2 -7 1 -15 -2 -18z m-951 -111 c-7 -8 -35 7 -35 18 0 6 7 6 20
-2 10 -7 17 -14 15 -16z"/>
<path d="M930 610 c0 -5 5 -10 10 -10 6 0 10 5 10 10 0 6 -4 10 -10 10 -5 0
-10 -4 -10 -10z"/>
<path d="M1650 612 c0 -4 -27 -6 -59 -4 l-60 4 12 -38 c12 -40 86 -124 109
-124 8 0 20 6 27 13 9 8 15 8 17 2 3 -6 30 -10 64 -9 33 1 63 -2 66 -7 9 -15
26 -10 20 7 -3 8 -2 13 2 10 5 -3 17 14 28 38 24 51 16 63 -48 72 -24 3 -52 9
-63 14 -22 9 -99 30 -109 30 -3 0 -6 -4 -6 -8z"/>
<path d="M896 581 c-4 -7 -5 -15 -2 -18 9 -9 19 4 14 18 -4 11 -6 11 -12 0z"/>
<path d="M930 560 c0 -5 5 -10 10 -10 6 0 10 5 10 10 0 6 -4 10 -10 10 -5 0
-10 -4 -10 -10z"/>
<path d="M1020 476 c0 -9 5 -16 10 -16 6 0 10 4 10 9 0 6 -4 13 -10 16 -5 3
-10 -1 -10 -9z"/>
<path d="M1075 470 c-3 -5 -1 -10 4 -10 6 0 11 5 11 10 0 6 -2 10 -4 10 -3 0
-8 -4 -11 -10z"/>
</g>
</svg>
